<svg width="24" height="24" viewBox="0 0 24 24" fill="none" xmlns="http://www.w3.org/2000/svg">
<path d="M12 21.75C17.3848 21.75 21.75 17.3848 21.75 12C21.75 11.3787 22.2537 10.875 22.875 10.875C23.4963 10.875 24 11.3787 24 12C24 18.6274 18.6274 24 12 24C5.37255 24 4.69686e-07 18.6274 1.04907e-06 12C1.62846e-06 5.37255 5.37255 -1.62846e-06 12 -1.04907e-06C12.6213 -9.94756e-07 13.125 0.503699 13.125 1.125C13.125 1.7463 12.6213 2.25 12 2.25C6.61515 2.25 2.25 6.61515 2.25 12C2.25 17.3848 6.61515 21.75 12 21.75Z" fill="url(#paint0_linear_38_251)"/>
<defs>
<linearGradient id="paint0_linear_38_251" x1="19" y1="21.5" x2="4" y2="2.5" gradientUnits="userSpaceOnUse">
<stop stop-color="white" stop-opacity="0.4"/>
<stop offset="1" stop-color="white"/>
</linearGradient>
</defs>
</svg>
